HIERARCHY
ROOT SpineBase
{
  OFFSET 0.000000 0.000000 0.000000
  CHANNELS 6 Xposition Yposition Zposition Zrotation Xrotation Yrotation
  JOINT SpineMid
  {
    OFFSET -0.000000 28.042337 0.000000
    CHANNELS 3 Zrotation Xrotation Yrotation
    JOINT SpineShoulder
    {
      OFFSET 0.078248 21.018025 -0.520493
      CHANNELS 3 Zrotation Xrotation Yrotation
      JOINT Neck
      {
        OFFSET 0.107780 7.038888 -0.472266
        CHANNELS 3 Zrotation Xrotation Yrotation
        JOINT Head
        {
          OFFSET 2.242218 13.546423 1.172249
          CHANNELS 3 Zrotation Xrotation Yrotation
          End Site
          {
            OFFSET 0 0 0
          }
        }
      }
      JOINT ShoulderLeft
      {
        OFFSET -8.179237 -0.224796 -11.192909
        CHANNELS 3 Zrotation Xrotation Yrotation
        JOINT ElbowLeft
        {
          OFFSET -0.797448 -20.483108 -11.292971
          CHANNELS 3 Zrotation Xrotation Yrotation
          JOINT WristLeft
          {
            OFFSET 17.796643 -10.824389 -11.004449
            CHANNELS 3 Zrotation Xrotation Yrotation
            JOINT HandLeft
            {
              OFFSET 6.210009 -3.786703 -5.872297
              CHANNELS 3 Zrotation Xrotation Yrotation
              JOINT HandTipLeft
              {
                OFFSET 6.576999 -4.357177 -4.538628
                CHANNELS 3 Zrotation Xrotation Yrotation
                End Site
                {
                  OFFSET 0 0 0
                }
              }
              JOINT ThumbLeft
              {
                OFFSET 2.819122 3.674142 1.006787
                CHANNELS 3 Zrotation Xrotation Yrotation
                End Site
                {
                  OFFSET 0 0 0
                }
              }
            }
          }
        }
      }
      JOINT ShoulderRight
      {
        OFFSET 14.222232 -2.954975 11.625870
        CHANNELS 3 Zrotation Xrotation Yrotation
        JOINT ElbowRight
        {
          OFFSET 8.438380 -26.041797 2.590214
          CHANNELS 3 Zrotation Xrotation Yrotation
          JOINT WristRight
          {
            OFFSET 15.829123 -5.430482 -16.936926
            CHANNELS 3 Zrotation Xrotation Yrotation
            JOINT HandRight
            {
              OFFSET 2.245367 -2.937476 -4.624192
              CHANNELS 3 Zrotation Xrotation Yrotation
              JOINT HandTipRight
              {
                OFFSET 2.513731 -1.650795 -2.559227
                CHANNELS 3 Zrotation Xrotation Yrotation
                End Site
                {
                  OFFSET 0 0 0
                }
              }
              JOINT ThumbRight
              {
                OFFSET 4.813574 0.338572 -0.563457
                CHANNELS 3 Zrotation Xrotation Yrotation
                End Site
                {
                  OFFSET 0 0 0
                }
              }
            }
          }
        }
      }
    }
  }
  JOINT HipLeft
  {
    OFFSET -5.422029 2.272425 -7.992767
    CHANNELS 3 Zrotation Xrotation Yrotation
    JOINT KneeLeft
    {
      OFFSET 22.181148 9.276983 -28.532956
      CHANNELS 3 Zrotation Xrotation Yrotation
      JOINT AnkleLeft
      {
        OFFSET 4.323316 -31.776226 2.339935
        CHANNELS 3 Zrotation Xrotation Yrotation
        JOINT FootLeft
        {
          OFFSET 7.937656 -2.166559 -10.518779
          CHANNELS 3 Zrotation Xrotation Yrotation
          End Site
          {
            OFFSET 0 0 0
          }
        }
      }
    }
  }
  JOINT HipRight
  {
    OFFSET 6.439991 1.075721 1.748638
    CHANNELS 3 Zrotation Xrotation Yrotation
    JOINT KneeRight
    {
      OFFSET 32.338974 7.712168 -8.784717
      CHANNELS 3 Zrotation Xrotation Yrotation
      JOINT AnkleRight
      {
        OFFSET -6.236869 -32.451252 -9.802979
        CHANNELS 3 Zrotation Xrotation Yrotation
        JOINT FootRight
        {
          OFFSET 7.813660 -2.216190 -10.561976
          CHANNELS 3 Zrotation Xrotation Yrotation
          End Site
          {
            OFFSET 0 0 0
          }
        }
      }
    }
  }
}
MOTION
Frames: 11
Frame Time: 0.033333
-57.733200 31.368532 324.536565 5.403036 9.384624 -24.271464 -0.884506 -0.200348 23.819935 -0.237434 0.137928 0.035533 4.687471 20.508858 -7.209462 0.000000 0.000000 0.000000 -88.172070 21.189405 52.911635 65.994417 35.576597 91.197097 48.932208 5.698099 -2.295714 -21.908688 3.559641 5.512752 0.000000 0.000000 0.000000 0.000000 0.000000 0.000000 -16.680255 -72.976843 -32.214699 72.120108 31.415043 -135.852729 73.162652 -27.595888 -46.283638 -0.102206 -19.350996 65.807544 0.000000 0.000000 0.000000 0.000000 0.000000 0.000000 -3.144229 -14.482701 19.873045 7.945085 13.963421 4.505316 -9.022017 -13.064893 4.054220 0.000000 0.000000 0.000000 -4.203563 -13.159625 23.042367 18.971894 -2.964669 -3.735795 -14.060448 5.850175 6.199145 0.000000 0.000000 0.000000
-57.619968 31.408059 324.530294 4.830817 9.800304 -24.000106 -1.054061 -0.321212 23.537923 -0.223113 0.138152 0.000359 2.693578 23.385791 -7.257873 0.000000 0.000000 0.000000 -81.853742 18.200178 47.021002 69.367745 39.303396 84.169850 40.730291 10.144046 -3.984780 -20.559693 3.447233 4.555053 0.000000 0.000000 0.000000 0.000000 0.000000 0.000000 -46.619100 -79.419702 -64.097858 85.624372 24.750888 -152.356378 168.761954 -20.282066 66.420752 -83.195224 19.315281 51.779980 0.000000 0.000000 0.000000 0.000000 0.000000 0.000000 -2.723784 -15.600465 19.873359 8.179401 14.074118 4.094570 -8.718747 -12.780694 3.663959 0.000000 0.000000 0.000000 -3.970582 -13.625431 22.811944 18.882369 -2.824532 -3.663888 -13.450719 5.876697 5.841267 0.000000 0.000000 0.000000
-57.429524 31.354159 324.453875 4.195583 10.246195 -23.872520 -1.178282 -0.385461 23.410853 -0.184314 0.109909 -0.030516 1.127180 25.673714 -7.180036 0.000000 0.000000 0.000000 -74.937337 14.984188 40.934674 70.816323 41.852714 77.060861 21.762973 20.356744 -3.430454 -7.139068 -2.329097 5.539861 0.000000 0.000000 0.000000 0.000000 0.000000 0.000000 -66.091237 -79.803884 -84.241636 86.045953 22.551453 -157.720655 -166.223662 18.183035 79.176984 -136.370087 25.732550 77.401067 0.000000 0.000000 0.000000 0.000000 0.000000 0.000000 -2.324330 -17.361493 20.171029 9.335508 14.855767 3.378762 -8.225454 -11.729340 2.923602 0.000000 0.000000 0.000000 -3.497806 -13.988793 22.730704 18.585864 -2.739462 -3.512952 -12.854186 5.923772 5.720822 0.000000 0.000000 0.000000
-57.173711 31.259328 324.361521 3.485652 10.748144 -23.823360 -1.191712 -0.435400 23.382827 -0.100335 0.044473 -0.051776 -0.313361 27.607345 -7.018525 0.000000 0.000000 0.000000 -68.813838 11.170972 35.502764 68.228627 40.547610 71.869645 22.730117 16.518829 -1.924403 -9.177097 2.024438 5.720191 0.000000 0.000000 0.000000 0.000000 0.000000 0.000000 -55.208065 -77.517946 -72.114784 78.845917 24.811329 -153.939201 -163.279575 34.891516 87.208999 -149.229371 31.778665 93.033248 0.000000 0.000000 0.000000 0.000000 0.000000 0.000000 -1.628984 -18.610028 20.630192 9.720811 15.078310 2.743484 -6.520175 -9.917612 1.077760 0.000000 0.000000 0.000000 -2.791031 -14.289875 22.780250 18.130819 -2.723409 -3.336756 -12.156317 5.906519 4.952313 0.000000 0.000000 0.000000
-56.899658 31.113526 324.288041 2.699554 11.253156 -23.694216 -1.158963 -0.482340 23.291889 -0.011287 -0.047879 -0.072667 -0.365266 28.739445 -6.994714 0.000000 0.000000 0.000000 -63.836654 8.587240 31.674445 61.955753 37.550675 70.082428 19.465497 15.898676 0.634883 -7.852505 -0.378510 3.812093 0.000000 0.000000 0.000000 0.000000 0.000000 0.000000 -30.920715 -70.574793 -44.962099 55.236231 29.944896 -137.123533 1.475613 63.209550 -33.754913 115.015171 -15.207782 123.268114 0.000000 0.000000 0.000000 0.000000 0.000000 0.000000 -0.561920 -18.714100 21.075328 9.236662 14.791933 2.382810 -4.132171 -7.959835 -1.183117 0.000000 0.000000 0.000000 -1.888265 -14.463401 22.831008 17.589226 -2.773952 -3.189232 -11.549943 5.875486 4.176380 0.000000 0.000000 0.000000
-56.642142 30.990048 324.186394 1.849203 11.827335 -23.729312 -1.101116 -0.522140 23.377880 0.084589 -0.097715 -0.096099 -0.123325 29.229154 -6.923101 0.000000 0.000000 0.000000 -62.114227 8.600714 30.882672 51.725892 28.950560 73.350643 14.922434 14.889805 4.329832 -5.272949 -1.399348 1.864514 0.000000 0.000000 0.000000 0.000000 0.000000 0.000000 -27.433934 -69.417418 -41.592918 34.021942 33.925689 -126.659421 31.923839 10.746074 -29.373426 34.589722 -32.767137 89.538068 0.000000 0.000000 0.000000 0.000000 0.000000 0.000000 0.548107 -19.157446 21.638411 9.569770 15.545417 2.037310 -1.334442 -5.998258 -4.729693 0.000000 0.000000 0.000000 -0.886128 -14.664483 22.948517 17.198856 -2.790128 -2.967862 -11.008159 5.704307 2.902227 0.000000 0.000000 0.000000
-56.456163 30.878381 324.121464 1.044500 12.298626 -24.090929 -0.989864 -0.525305 23.805885 0.122009 -0.112456 -0.124437 -1.095591 29.958500 -6.589280 0.000000 0.000000 0.000000 -60.535098 8.974322 30.324329 40.439942 17.087048 75.214034 13.788397 11.063181 7.541765 -9.156647 -0.623025 -3.500847 0.000000 0.000000 0.000000 0.000000 0.000000 0.000000 -23.029078 -69.188709 -37.997457 3.239537 35.332253 -109.006666 51.400248 -17.110497 0.090746 -22.076765 -1.511618 54.283533 0.000000 0.000000 0.000000 0.000000 0.000000 0.000000 1.687807 -19.500693 22.521043 9.587989 15.678463 1.694450 -2.991137 -7.862017 -4.259229 0.000000 0.000000 0.000000 0.125493 -14.771937 23.381237 17.139740 -2.727089 -2.848200 -10.806032 5.315509 1.434594 0.000000 0.000000 0.000000
-56.285368 30.876412 324.158918 0.567469 12.558855 -25.032413 -0.860729 -0.464651 24.801860 0.149199 -0.120510 -0.136890 -3.076473 30.340259 -6.057080 0.000000 0.000000 0.000000 -59.418075 9.910069 30.087136 30.306704 4.929614 74.720372 13.056158 6.172866 8.853657 -8.423718 -2.340277 -8.967934 0.000000 0.000000 0.000000 0.000000 0.000000 0.000000 -25.218816 -71.074308 -41.119178 -21.424566 33.651542 -92.011735 92.635202 -26.853049 53.034808 -59.581694 55.523493 39.839047 0.000000 0.000000 0.000000 0.000000 0.000000 0.000000 2.597793 -20.144697 24.095553 9.180913 15.070234 1.104659 -3.170330 -8.252172 -5.074938 0.000000 0.000000 0.000000 0.670172 -15.016512 24.394845 17.438611 -2.512739 -2.908944 -10.641048 4.749593 -0.457074 0.000000 0.000000 0.000000
-56.146595 30.826725 324.057202 0.257567 12.855794 -25.298297 -0.574886 -0.485775 25.125931 0.171669 -0.106295 -0.137108 -6.128558 30.667878 -5.334123 0.000000 0.000000 0.000000 -60.201793 11.725057 31.152123 19.814676 -11.001895 70.075122 16.820870 1.775318 11.888595 -8.673158 -2.505471 -14.865429 0.000000 0.000000 0.000000 0.000000 0.000000 0.000000 -22.913685 -70.341804 -38.647248 -39.686074 25.227184 -78.119308 98.927291 -21.804921 68.906096 -126.008406 85.833862 77.969658 0.000000 0.000000 0.000000 0.000000 0.000000 0.000000 3.187355 -19.973709 24.459026 8.027350 14.347077 1.222459 -2.852115 -8.468395 -4.593261 0.000000 0.000000 0.000000 1.186815 -14.979874 24.336306 17.180405 -2.354556 -2.466382 -10.422229 4.482459 -0.933374 0.000000 0.000000 0.000000
-56.096874 30.687171 323.915247 -0.343540 13.252239 -24.890624 -0.518151 -0.571378 24.769671 -0.006733 -0.062162 -0.198228 -8.214816 30.575754 -4.539528 0.000000 0.000000 0.000000 -59.084973 11.152366 30.632441 10.621036 -20.346508 64.504893 9.016187 -2.842017 8.754651 0.747744 -2.124889 -15.272189 0.000000 0.000000 0.000000 0.000000 0.000000 0.000000 -17.330321 -68.154560 -33.118585 -52.280441 14.220592 -69.874106 86.514772 -23.188025 58.574517 113.903137 77.928373 -175.003830 0.000000 0.000000 0.000000 0.000000 0.000000 0.000000 3.826501 -19.599360 23.947140 7.433624 14.096269 1.581144 -2.825143 -8.576284 -3.221087 0.000000 0.000000 0.000000 2.027230 -14.702130 23.483070 16.554967 -2.189829 -1.764192 -10.195781 4.359147 -0.285601 0.000000 0.000000 0.000000
-56.174188 30.425895 323.786436 -0.923625 13.495636 -23.774324 -0.514563 -0.644043 23.701000 -0.126544 -0.076067 -0.247892 -10.751108 30.619203 -3.633545 0.000000 0.000000 0.000000 -58.529345 10.676919 30.557488 0.220335 -29.129799 55.529584 6.918218 -6.822073 5.813517 7.099800 -0.070648 -13.772429 0.000000 0.000000 0.000000 0.000000 0.000000 0.000000 -10.106973 -62.020433 -24.711674 -56.626833 7.042550 -72.228328 76.123451 -22.595322 47.171501 113.512168 55.467842 179.084574 0.000000 0.000000 0.000000 0.000000 0.000000 0.000000 3.770440 -20.485955 22.546896 7.187201 13.821687 1.722835 -2.913085 -8.339816 -1.152373 0.000000 0.000000 0.000000 2.794570 -14.160267 21.827521 15.689667 -2.042690 -0.942637 -10.065050 4.376575 1.415722 0.000000 0.000000 0.000000
